<svg id="Capa_1" enable-background="new 0 0 512 512" height="512" viewBox="0 0 512 512" width="512" xmlns="http://www.w3.org/2000/svg"><g><path d="m365 375.667v-40.76c0-7.444-6.056-13.5-13.5-13.5h-191c-7.444 0-13.5 6.056-13.5 13.5v40.76c0 7.444 6.056 13.5 13.5 13.5h191c7.444 0 13.5-6.057 13.5-13.5zm-15-1.5h-188v-37.76h188z"/><path d="m401 0h-37.785c-4.143 0-7.5 3.358-7.5 7.5s3.357 7.5 7.5 7.5h37.785c9.649 0 17.5 7.851 17.5 17.5v259c-13.389 0-310.602 0-325 0v-259c0-9.649 7.851-17.5 17.5-17.5h217.215c4.143 0 7.5-3.358 7.5-7.5s-3.357-7.5-7.5-7.5h-217.215c-17.92 0-32.5 14.58-32.5 32.5v447c0 17.92 14.58 32.5 32.5 32.5h34c4.142 0 7.5-3.358 7.5-7.5s-3.358-7.5-7.5-7.5h-34c-9.649 0-17.5-7.851-17.5-17.5v-173h325v173c0 9.868-8.005 17.5-17.5 17.5h-221c-4.142 0-7.5 3.358-7.5 7.5s3.358 7.5 7.5 7.5h221c17.506 0 32.5-14.044 32.5-32.5 0-12.993 0-437.108 0-447 0-17.92-14.579-32.5-32.5-32.5z"/><path d="m135.75 35c-8.547 0-15.5 6.953-15.5 15.5v205.5c0 8.547 6.953 15.5 15.5 15.5h240.5c8.547 0 15.5-6.953 15.5-15.5 0-3.672 0-203.191 0-205.5 0-8.547-6.953-15.5-15.5-15.5-11.102 0-229.749 0-240.5 0zm-.5 15.5c0-.276.224-.5.5-.5h29.561v23.833h-30.061zm0 38.333h30.061v23.833h-30.061zm0 38.834h30.061v23.833h-30.061zm140 128.833h-139.5c-.276 0-.5-.224-.5-.5v-89.5h140zm71.439-206.5h29.561c.275 0 .5.224.5.5v23.333h-30.061zm0 38.833h30.061v23.833h-30.061zm0 38.834h30.061v23.833h-30.061zm30.061 38.833v89.5c0 .276-.225.5-.5.5h-86v-90zm-196.439-46.333v-38.834-31.333h151.378v101.5c-6.797 0-144.836 0-151.378 0z"/><path d="m313.75 223.5h39.5c6.341 0 11.5-5.159 11.5-11.5v-22c0-6.341-5.159-11.5-11.5-11.5h-39.5c-6.341 0-11.5 5.159-11.5 11.5v22c0 6.341 5.159 11.5 11.5 11.5zm3.5-30h32.5v15h-32.5z"/><path d="m157.788 178c-4.142 0-7.5 3.358-7.5 7.5s3.358 7.5 7.5 7.5h12c4.142 0 7.5-3.358 7.5-7.5s-3.358-7.5-7.5-7.5z"/><path d="m199.25 193h12c4.142 0 7.5-3.358 7.5-7.5s-3.358-7.5-7.5-7.5h-12c-4.142 0-7.5 3.358-7.5 7.5s3.358 7.5 7.5 7.5z"/><path d="m240.712 193h12c4.142 0 7.5-3.358 7.5-7.5s-3.358-7.5-7.5-7.5h-12c-4.142 0-7.5 3.358-7.5 7.5s3.358 7.5 7.5 7.5z"/><path d="m169.788 204h-12c-4.142 0-7.5 3.358-7.5 7.5s3.358 7.5 7.5 7.5h12c4.142 0 7.5-3.358 7.5-7.5s-3.358-7.5-7.5-7.5z"/><path d="m199.25 219h12c4.142 0 7.5-3.358 7.5-7.5s-3.358-7.5-7.5-7.5h-12c-4.142 0-7.5 3.358-7.5 7.5s3.358 7.5 7.5 7.5z"/><path d="m240.712 219h12c4.142 0 7.5-3.358 7.5-7.5s-3.358-7.5-7.5-7.5h-12c-4.142 0-7.5 3.358-7.5 7.5s3.358 7.5 7.5 7.5z"/><path d="m169.788 230h-12c-4.142 0-7.5 3.358-7.5 7.5s3.358 7.5 7.5 7.5h12c4.142 0 7.5-3.358 7.5-7.5s-3.358-7.5-7.5-7.5z"/><path d="m199.25 245h12c4.142 0 7.5-3.358 7.5-7.5s-3.358-7.5-7.5-7.5h-12c-4.142 0-7.5 3.358-7.5 7.5s3.358 7.5 7.5 7.5z"/><path d="m240.712 245h12c4.142 0 7.5-3.358 7.5-7.5s-3.358-7.5-7.5-7.5h-12c-4.142 0-7.5 3.358-7.5 7.5s3.358 7.5 7.5 7.5z"/><path d="m196 362.787h120c4.143 0 7.5-3.358 7.5-7.5s-3.357-7.5-7.5-7.5h-120c-4.142 0-7.5 3.358-7.5 7.5s3.358 7.5 7.5 7.5z"/></g></svg>