<svg id="Capa_1" enable-background="new 0 0 512 512" height="512" viewBox="0 0 512 512" width="512" xmlns="http://www.w3.org/2000/svg"><g><path d="m512 211h-32v-90h-60v-60h-375c-24.813 0-45 20.187-45 45v270c0 41.355 33.645 75 75 75h405v-90h32zm-467-120h345v30h-345c-8.271 0-15-6.729-15-15s6.729-15 15-15zm405 330h-375c-24.813 0-45-20.187-45-45v-227.58c4.695 1.665 9.741 2.58 15 2.58h375 30v60h-75c-41.355 0-75 33.645-75 75s33.645 75 75 75h75zm32-90h-2-30-75c-24.813 0-45-20.187-45-45s20.187-45 45-45h75 30 2z"/><path d="m360 271h30v30h-30z"/></g></svg>